<?xml version="1.0" encoding="UTF-8" standalone="no"?>
<!DOCTYPE svg PUBLIC "-//W3C//DTD SVG 1.1//EN" "http://www.w3.org/Graphics/SVG/1.1/DTD/svg11.dtd">
<svg width="100%" height="100%" viewBox="0 0 800 250" version="1.1" xmlns="http://www.w3.org/2000/svg" xmlns:xlink="http://www.w3.org/1999/xlink" xml:space="preserve" xmlns:serif="http://www.serif.com/" style="fill-rule:evenodd;clip-rule:evenodd;stroke-linejoin:round;stroke-miterlimit:2;">
    <g transform="matrix(1.38559,0,0,1.38559,-462.493,-238.416)">
        <path d="M426.165,315.752L414.501,315.752L414.501,304.232C405.957,313.64 396.117,318.344 384.981,318.344C373.845,318.344 364.317,314.24 356.397,306.032C348.477,297.824 344.517,288.032 344.517,276.656C344.517,265.28 348.501,255.536 356.469,247.424C364.437,239.312 374.157,235.256 385.629,235.256C397.101,235.256 406.725,239.912 414.501,249.224L414.501,237.272L426.165,237.272L426.165,315.752ZM385.845,307.256C393.813,307.256 400.677,304.376 406.437,298.616C412.197,292.856 415.077,285.68 415.077,277.088C415.077,268.496 412.245,261.296 406.581,255.488C400.917,249.68 393.981,246.776 385.773,246.776C377.565,246.776 370.629,249.776 364.965,255.776C359.301,261.776 356.469,268.856 356.469,277.016C356.469,285.176 359.349,292.256 365.109,298.256C370.869,304.256 377.781,307.256 385.845,307.256Z" style="fill-rule:nonzero;"/>
        <rect x="444.885" y="207.752" width="11.808" height="108" style="fill-rule:nonzero;"/>
        <rect x="473.685" y="237.272" width="11.952" height="78.48" style="fill-rule:nonzero;"/>
        <path d="M582.405,297.32C582.405,307.688 581.517,315.368 579.741,320.36C577.965,325.352 575.277,329.576 571.677,333.032C568.077,336.488 563.757,339.104 558.717,340.88C553.677,342.656 548.133,343.544 542.085,343.544C521.637,343.544 508.005,334.904 501.189,317.624L513.861,317.624C519.429,327.608 528.693,332.6 541.653,332.6C547.605,332.6 552.933,331.448 557.637,329.144C562.341,326.84 565.653,323.768 567.573,319.928C569.493,316.088 570.453,310.184 570.453,302.216L570.453,301.496C566.709,305.72 562.197,308.936 556.917,311.144C551.637,313.352 546.165,314.456 540.501,314.456C529.173,314.456 519.693,310.568 512.061,302.792C504.429,295.016 500.661,285.848 500.757,275.288C500.661,264.248 504.645,254.816 512.709,246.992C520.773,239.168 530.349,235.256 541.437,235.256C552.525,235.256 562.197,239.768 570.453,248.792L570.453,237.272L582.405,237.272L582.405,297.32ZM570.885,275.288C570.885,267.032 568.125,260.216 562.605,254.84C557.085,249.464 550.341,246.776 542.373,246.776C533.925,246.776 526.845,249.68 521.133,255.488C515.421,261.296 512.565,268.04 512.565,275.72C512.565,283.4 515.301,289.904 520.773,295.232C526.245,300.56 533.253,303.224 541.797,303.224C550.341,303.224 557.325,300.608 562.749,295.376C568.173,290.144 570.885,283.448 570.885,275.288Z" style="fill-rule:nonzero;"/>
        <path d="M669.669,315.752L657.861,315.752L657.861,278.312C657.861,269.672 657.453,263.792 656.637,260.672C655.821,257.552 654.621,254.912 653.037,252.752C651.453,250.592 649.437,248.984 646.989,247.928C644.541,246.872 641.565,246.344 638.061,246.344C634.557,246.344 631.125,247.208 627.765,248.936C624.405,250.664 621.525,253.064 619.125,256.136C616.725,259.208 615.069,262.472 614.157,265.928C613.245,269.384 612.789,276.296 612.789,286.664L612.789,315.752L600.837,315.752L600.837,237.272L612.789,237.272L612.789,249.08C620.565,239.864 629.781,235.256 640.437,235.256C646.101,235.256 651.237,236.72 655.845,239.648C660.453,242.576 663.909,246.608 666.213,251.744C668.517,256.88 669.669,264.776 669.669,275.432L669.669,315.752Z" style="fill-rule:nonzero;"/>
        <path d="M725.973,235.256C737.301,235.256 746.925,239.336 754.845,247.496C762.765,255.656 766.725,265.448 766.725,276.872C766.725,288.296 762.813,298.064 754.989,306.176C747.165,314.288 737.493,318.344 725.973,318.344C714.453,318.344 704.757,314.288 696.885,306.176C689.013,298.064 685.077,288.296 685.077,276.872C685.077,265.448 689.037,255.656 696.957,247.496C704.877,239.336 714.549,235.256 725.973,235.256ZM725.973,306.968C733.941,306.968 740.733,304.064 746.349,298.256C751.965,292.448 754.773,285.44 754.773,277.232C754.773,269.024 751.917,261.92 746.205,255.92C740.493,249.92 733.725,246.92 725.901,246.92C718.077,246.92 711.333,249.92 705.669,255.92C700.005,261.92 697.173,269.048 697.173,277.304C697.173,285.56 699.909,292.568 705.381,298.328C710.853,304.088 717.717,306.968 725.973,306.968Z" style="fill-rule:nonzero;"/>
        <path d="M819.141,247.64L803.589,247.64L803.589,302.648C803.589,304.664 803.877,305.888 804.453,306.32C805.029,306.752 806.469,306.968 808.773,306.968L815.685,306.968L815.685,317.192C811.077,317.96 807.573,318.344 805.173,318.344C800.565,318.344 797.157,317.216 794.949,314.96C792.741,312.704 791.637,309.128 791.637,304.232L791.637,247.64L778.101,247.64L778.101,237.272L791.637,237.272L791.637,207.752L803.589,207.752L803.589,237.272L819.141,237.272L819.141,247.64Z" style="fill-rule:nonzero;"/>
        <path d="M900.645,315.752L888.693,315.752L888.693,278.312C888.693,271.016 888.477,265.88 888.045,262.904C887.613,259.928 886.629,257.12 885.093,254.48C883.557,251.84 881.469,249.824 878.829,248.432C876.189,247.04 873.021,246.344 869.325,246.344C865.629,246.344 862.101,247.208 858.741,248.936C855.381,250.664 852.501,253.064 850.101,256.136C847.701,259.208 846.045,262.472 845.133,265.928C844.221,269.384 843.765,276.296 843.765,286.664L843.765,315.752L831.813,315.752L831.813,207.752L843.765,207.752L843.765,249.08C851.541,239.864 860.757,235.256 871.413,235.256C877.077,235.256 882.213,236.72 886.821,239.648C891.429,242.576 894.885,246.608 897.189,251.744C899.493,256.88 900.645,264.776 900.645,275.432L900.645,315.752Z" style="fill-rule:nonzero;"/>
    </g>
    <g transform="matrix(1.38559,0,0,1.38559,-107.351,-101.915)">
        <path d="M223.32,98.687L226.714,109.131L237.694,109.131L228.811,115.585L232.204,126.028L223.32,119.574L214.437,126.028L217.83,115.585L208.946,109.131L219.927,109.131L223.32,98.687Z"/>
    </g>
    <g transform="matrix(8.48429e-17,1.38559,-1.38559,8.48429e-17,676.294,-568.796)">
        <rect x="444.885" y="207.752" width="11.808" height="108" style="fill-rule:nonzero;"/>
    </g>
    <g transform="matrix(2.13437e-17,0.34857,-1.38559,8.48429e-17,778.423,-101.452)">
        <rect x="444.885" y="207.752" width="11.808" height="108" style="fill-rule:nonzero;"/>
    </g>
    <g transform="matrix(8.48429e-17,1.38559,-1.38559,8.48429e-17,888.29,-568.796)">
        <rect x="444.885" y="207.752" width="11.808" height="108" style="fill-rule:nonzero;"/>
    </g>
    <g transform="matrix(8.48429e-17,1.38559,-1.38559,8.48429e-17,781.233,-606.603)">
        <rect x="444.885" y="207.752" width="11.808" height="108" style="fill-rule:nonzero;"/>
    </g>
    <g transform="matrix(8.48429e-17,1.38559,-1.38559,8.48429e-17,591.407,-606.603)">
        <rect x="444.885" y="207.752" width="11.808" height="108" style="fill-rule:nonzero;"/>
    </g>
    <g transform="matrix(2.13437e-17,0.34857,-1.38559,8.48429e-17,883.361,-139.259)">
        <rect x="444.885" y="207.752" width="11.808" height="108" style="fill-rule:nonzero;"/>
    </g>
    <g transform="matrix(8.48429e-17,1.38559,-1.38559,8.48429e-17,993.228,-606.603)">
        <rect x="444.885" y="207.752" width="11.808" height="108" style="fill-rule:nonzero;"/>
    </g>
</svg>
