<?xml version="1.0" encoding="UTF-8" standalone="no"?>
<!DOCTYPE svg PUBLIC "-//W3C//DTD SVG 1.1//EN" "http://www.w3.org/Graphics/SVG/1.1/DTD/svg11.dtd">
<svg width="100%" height="100%" viewBox="0 0 115 117" version="1.1" xmlns="http://www.w3.org/2000/svg" xmlns:xlink="http://www.w3.org/1999/xlink" xml:space="preserve" xmlns:serif="http://www.serif.com/" style="fill-rule:evenodd;clip-rule:evenodd;stroke-linejoin:round;stroke-miterlimit:2;">
    <g transform="matrix(1.38559,0,0,1.38559,-476.859,-325.468)">
        <path d="M426.165,315.752L414.501,315.752L414.501,304.232C405.957,313.64 396.117,318.344 384.981,318.344C373.845,318.344 364.317,314.24 356.397,306.032C348.477,297.824 344.517,288.032 344.517,276.656C344.517,265.28 348.501,255.536 356.469,247.424C364.437,239.312 374.157,235.256 385.629,235.256C397.101,235.256 406.725,239.912 414.501,249.224L414.501,237.272L426.165,237.272L426.165,315.752ZM385.845,307.256C393.813,307.256 400.677,304.376 406.437,298.616C412.197,292.856 415.077,285.68 415.077,277.088C415.077,268.496 412.245,261.296 406.581,255.488C400.917,249.68 393.981,246.776 385.773,246.776C377.565,246.776 370.629,249.776 364.965,255.776C359.301,261.776 356.469,268.856 356.469,277.016C356.469,285.176 359.349,292.256 365.109,298.256C370.869,304.256 377.781,307.256 385.845,307.256Z" style="fill-rule:nonzero;"/>
    </g>
    <g transform="matrix(2.01414,0,0,2.01414,-392.909,-170.405)">
        <path d="M223.32,98.687L226.714,109.131L237.694,109.131L228.811,115.585L232.204,126.028L223.32,119.574L214.437,126.028L217.83,115.585L208.946,109.131L219.927,109.131L223.32,98.687Z"/>
    </g>
</svg>
